@startuml
!pragma layout smetana
'https://plantuml.com/class-diagram

class Main{
    - static TextUI textUI
    + static void main()
    + static User startMenu()
    - static runMenu startMenu()
}



class StartMenu{

    - static FileIO fileIO
    + void runMenu()
    - String gender
    - String preferances
    - void datingOptions()

}


class DatingOptions {


}

abstract interactions{

}


class Date1{



}


class Date2{



}

class Date3{



}


class FileIO {



}

class TextUI {



}


class EndOfDate{
+ rateDate()

}



StartMenu <-- DatingOptions
Main <-- StartMenu
StartMenu <--TextUI
DatingOptions <-- FileIO
DatingOptions <-- interactions
interactions <-- FileIO
interactions <-- Date1
interactions <-- Date2
interactions <-- Date3
Date1 <-- FileIO
Date2 <-- FileIO
Date3 <-- FileIO

Date1 <-- EndOfDate
Date2 <-- EndOfDate
Date3 <-- EndOfDate
EndOfDate <-- FileIO

Main <-- TextUI






@enduml